<svg width="1302" height="773" viewBox="0 0 1302 773" fill="none" xmlns="http://www.w3.org/2000/svg">
<g clip-path="url(#clip0_25_44)">
<path d="M638.8 445.96L456.26 551.36L310.73 467.34L493.27 361.94L638.8 445.96Z" fill="#42844D"/>
<path d="M328.08 423.59L145.53 528.98L0 444.96L182.55 339.56L328.08 423.59Z" fill="#00B59B"/>
<path d="M409.5 172.49L226.96 277.89L81.42 193.86L263.97 88.47L409.5 172.49Z" fill="#FFBC00"/>
<path d="M900.3 93.21L665.64 228.7L520.11 144.68L754.77 9.19L900.3 93.21Z" fill="#00B59B"/>
<path d="M965.02 257.63L669.83 428.05L524.3 344.03L819.48 173.6L965.02 257.63Z" fill="#42844D"/>
<path d="M633.87 247.04L359.85 405.25L214.32 321.22L488.34 163.02L633.87 247.04Z" fill="#00B59B"/>
<path d="M1067.72 406.51L863.41 524.46L717.88 440.44L922.19 322.48L1067.72 406.51Z" fill="#6CBC5B"/>
<path d="M828.82 544.31L584.45 685.39L438.92 601.37L683.29 460.29L828.82 544.31Z" fill="#6CBC5B"/>
<path d="M1242.33 601.51L945.86 772.68L734.68 650.75L1031.15 479.58L1242.33 601.51Z" fill="#2452D3"/>
<path d="M1242.33 585.95L945.86 757.12L734.68 635.19L1031.15 464.02L1242.33 585.95Z" fill="white"/>
<path d="M939.13 665.29C936.735 666.689 934.127 667.686 931.41 668.24C928.516 668.772 925.542 668.673 922.69 667.95C918.919 666.944 915.312 665.401 911.98 663.37L908.98 661.66L912.67 659.53L916.37 657.4L920.02 659.51C921.998 660.707 924.101 661.686 926.29 662.43C927.7 662.929 929.197 663.14 930.69 663.05C931.799 662.946 932.874 662.605 933.84 662.05C935.3 661.21 935.9 660.21 935.65 659.05C935.4 657.89 933.7 656.41 930.57 654.6C928.68 653.432 926.608 652.587 924.44 652.1C922.567 651.78 920.653 651.78 918.78 652.1C916.78 652.42 914.3 652.9 911.36 653.52C908.938 653.965 906.483 654.206 904.02 654.24C901.597 654.259 899.185 653.922 896.86 653.24C894.201 652.434 891.649 651.309 889.26 649.89C886.69 648.544 884.364 646.776 882.38 644.66C881.05 643.05 880.78 641.46 881.59 639.89C882.4 638.32 884.27 636.68 887.24 634.97C890.791 632.838 894.848 631.692 898.99 631.65C903.135 631.686 907.195 632.828 910.75 634.96L916.75 638.43L913.25 640.43L909.66 642.49L906.09 640.43C903.986 639.105 901.652 638.186 899.21 637.72C897.384 637.432 895.515 637.786 893.92 638.72C892.26 639.68 891.633 640.68 892.04 641.72C892.447 642.76 893.867 644 896.3 645.44C898.102 646.546 900.103 647.289 902.19 647.63C903.983 647.87 905.802 647.85 907.59 647.57C909.36 647.29 911.11 646.94 912.84 646.57C915.654 645.903 918.511 645.428 921.39 645.15C923.831 644.939 926.291 645.152 928.66 645.78C931.604 646.644 934.421 647.891 937.04 649.49C940.7 651.597 943.073 653.56 944.16 655.38C944.69 656.128 944.991 657.014 945.026 657.93C945.062 658.846 944.83 659.753 944.36 660.54C943.046 662.54 941.247 664.174 939.13 665.29Z" fill="#2452D3"/>
<path d="M957.07 654.23L905.61 624.52L912.77 620.39L964.23 650.09L957.07 654.23Z" fill="#2452D3"/>
<path d="M971.77 645.74L920.31 616.03L927.4 611.94L973.11 638.33L984.2 631.93L989.94 635.25L971.77 645.74Z" fill="#2452D3"/>
<path d="M994.24 632.77L942.78 603.06L949.95 598.93L1001.4 628.63L994.24 632.77Z" fill="#2452D3"/>
<path d="M1021.45 618.27C1019.19 619.566 1016.78 620.573 1014.27 621.27C1011.57 621.965 1008.74 622.03 1006.01 621.46C1002.28 620.618 998.707 619.162 995.45 617.15L967.68 601.15C964.54 599.34 962.68 597.67 962.04 596.15C961.733 595.404 961.651 594.584 961.804 593.792C961.956 592.999 962.337 592.269 962.9 591.69C964.426 589.998 966.233 588.58 968.24 587.5C970.516 586.182 972.957 585.173 975.5 584.5C977.993 583.87 980.586 583.741 983.13 584.12C986.176 584.638 989.096 585.734 991.73 587.35L1001.83 593.18L994.59 597.36L984.23 591.36C982.838 590.471 981.316 589.803 979.72 589.38C978.613 589.135 977.466 589.135 976.36 589.38C975.359 589.623 974.399 590.01 973.51 590.53C972.739 590.935 972.058 591.493 971.51 592.17C971.305 592.452 971.195 592.792 971.195 593.14C971.195 593.489 971.305 593.828 971.51 594.11C972.424 595.222 973.571 596.12 974.87 596.74L1005.78 614.59C1007.18 615.451 1008.71 616.095 1010.3 616.5C1011.42 616.754 1012.58 616.754 1013.7 616.5C1014.7 616.26 1015.66 615.876 1016.55 615.36C1017.33 614.95 1018.01 614.381 1018.55 613.69C1018.74 613.396 1018.83 613.049 1018.81 612.7C1018.78 612.352 1018.65 612.019 1018.43 611.75C1017.52 610.658 1016.39 609.769 1015.11 609.14L1005.88 603.81L1013.12 599.63L1019.39 603.25C1023.51 605.63 1026.05 607.68 1027.02 609.4C1027.5 610.094 1027.74 610.926 1027.7 611.769C1027.65 612.612 1027.34 613.417 1026.79 614.06C1025.27 615.767 1023.46 617.192 1021.45 618.27Z" fill="#2452D3"/>
<path d="M1051.31 601.03C1049.05 602.331 1046.64 603.339 1044.13 604.03C1041.46 604.694 1038.67 604.738 1035.98 604.16C1032.26 603.297 1028.71 601.831 1025.46 599.82L997.69 583.82C994.55 582.013 992.657 580.347 992.01 578.82C991.684 578.089 991.585 577.277 991.726 576.489C991.867 575.701 992.241 574.973 992.8 574.4C994.309 572.711 996.103 571.299 998.1 570.23C1000.36 568.912 1002.79 567.903 1005.32 567.23C1007.85 566.577 1010.48 566.424 1013.06 566.78C1016.14 567.255 1019.09 568.335 1021.74 569.96L1049.43 585.96C1053.55 588.34 1056.07 590.403 1056.99 592.15C1057.44 592.877 1057.65 593.729 1057.58 594.583C1057.51 595.436 1057.17 596.245 1056.61 596.89C1055.1 598.566 1053.3 599.967 1051.31 601.03ZM1046.31 598.16C1047.12 597.733 1047.84 597.136 1048.4 596.41C1048.6 596.114 1048.71 595.761 1048.7 595.402C1048.69 595.043 1048.57 594.695 1048.35 594.41C1047.47 593.333 1046.37 592.457 1045.12 591.84L1014.21 574C1012.85 573.169 1011.37 572.549 1009.82 572.16C1008.65 571.893 1007.43 571.893 1006.26 572.16C1005.21 572.411 1004.2 572.816 1003.26 573.36C1002.45 573.777 1001.75 574.372 1001.21 575.1C1001.02 575.404 1000.93 575.762 1000.95 576.121C1000.97 576.481 1001.11 576.823 1001.34 577.1C1002.21 578.16 1003.29 579.025 1004.52 579.64L1035.43 597.48C1036.81 598.323 1038.3 598.951 1039.87 599.34C1041.02 599.595 1042.2 599.595 1043.35 599.34C1044.4 599.104 1045.41 598.706 1046.34 598.16H1046.31Z" fill="#2452D3"/>
<path d="M1069.34 589.38L1017.88 559.67L1024.14 556.06L1069.88 569.67L1035.22 549.67L1041.63 545.97L1093.09 575.68L1086.72 579.38L1042.88 566.79L1075.71 585.74L1069.34 589.38Z" fill="#2452D3"/>
<path d="M828.82 532.05L584.45 673.14L438.92 589.11L683.29 448.03L828.82 532.05Z" fill="white"/>
<path d="M555.25 599.73C553.682 600.643 552.001 601.346 550.25 601.82C548.412 602.284 546.492 602.315 544.64 601.91C542.076 601.312 539.627 600.299 537.39 598.91L518.25 587.91C516.09 586.67 514.79 585.51 514.34 584.46C514.128 583.962 514.066 583.412 514.162 582.879C514.258 582.347 514.507 581.853 514.88 581.46C515.919 580.297 517.155 579.326 518.53 578.59C520.095 577.675 521.777 576.975 523.53 576.51C525.27 576.064 527.08 575.958 528.86 576.2C530.985 576.528 533.024 577.272 534.86 578.39L553.94 589.39C556.78 591.03 558.513 592.453 559.14 593.66C559.457 594.16 559.603 594.749 559.556 595.338C559.509 595.928 559.272 596.487 558.88 596.93C557.84 598.066 556.612 599.013 555.25 599.73ZM551.83 597.73C552.392 597.436 552.883 597.023 553.27 596.52C553.421 596.318 553.502 596.072 553.502 595.82C553.502 595.568 553.421 595.322 553.27 595.12C552.664 594.381 551.907 593.781 551.05 593.36L529.75 581.06C528.819 580.489 527.808 580.061 526.75 579.79C525.944 579.606 525.106 579.606 524.3 579.79C523.564 579.962 522.857 580.238 522.2 580.61C521.647 580.902 521.166 581.311 520.79 581.81C520.653 582.022 520.588 582.273 520.604 582.525C520.62 582.777 520.717 583.017 520.88 583.21C521.477 583.943 522.224 584.539 523.07 584.96L544.37 597.26C545.319 597.839 546.351 598.271 547.43 598.54C548.22 598.714 549.04 598.714 549.83 598.54C550.531 598.372 551.204 598.106 551.83 597.75V597.73Z" fill="#6CBC5B"/>
<path d="M567.72 591.72L532.26 571.25L542.65 565.25C544.466 564.164 546.534 563.572 548.65 563.53C550.764 563.532 552.839 564.109 554.65 565.2L560.95 568.84C562.301 569.589 563.554 570.502 564.68 571.56C565.109 571.906 565.449 572.35 565.672 572.855C565.894 573.359 565.993 573.91 565.96 574.46C565.84 575.46 564.96 576.46 563.19 577.46L558.3 580.28L572.94 588.73L567.72 591.72ZM555.03 578.4L558.2 576.57C559.2 575.97 559.55 575.25 559.13 574.4C558.71 573.55 557.44 572.53 555.32 571.3L552.14 569.47C550.698 568.557 549.107 567.903 547.44 567.54C546.403 567.308 545.318 567.442 544.37 567.92L540.63 570.09L555.03 578.4Z" fill="#6CBC5B"/>
<path d="M587.99 579.99L552.53 559.52L566.35 551.52L570.43 553.87L561.81 558.87L572.55 565.08L579.67 560.96L584.17 563.56L577.05 567.67L589.23 574.67L597.85 569.67L601.85 571.95L587.99 579.99Z" fill="#6CBC5B"/>
<path d="M605.5 569.88L570.04 549.41L580.64 543.29C582.457 542.204 584.524 541.608 586.64 541.56C588.753 541.552 590.828 542.122 592.64 543.21L598.28 546.46C600.28 547.6 601.37 548.78 601.65 550.03C601.93 551.28 601.22 552.46 599.5 553.59C600.689 553.001 602.021 552.761 603.34 552.9C605.018 553.149 606.667 553.567 608.26 554.15L623.46 559.5L617.95 562.68L603.69 557.27C602.552 556.861 601.394 556.511 600.22 556.22C599.342 555.947 598.394 556.023 597.57 556.43L595.03 557.91L610.63 566.91L605.5 569.88ZM591.03 555.58L594.35 553.66C595.57 552.96 596.06 552.26 595.84 551.56C595.62 550.86 594.78 550.07 593.3 549.22L588.8 546.62C587.716 545.937 586.493 545.506 585.22 545.36C584.149 545.283 583.081 545.538 582.16 546.09L578.37 548.27L591.03 555.58Z" fill="#6CBC5B"/>
<path d="M625.14 558.54L595.66 534.62L602.66 530.62L643.99 547.7L638.49 550.88L630.04 547.44L624.43 550.69L630.43 555.5L625.14 558.54ZM621.55 548.91L627.01 545.76L604.56 535.92L621.55 548.91Z" fill="#6CBC5B"/>
<path d="M648.37 545.13L616.99 527.01L612.11 529.84L608.03 527.48L622.89 518.9L626.97 521.26L621.97 524.14L653.35 542.25L648.37 545.13Z" fill="#6CBC5B"/>
<path d="M661.47 537.57L626.01 517.1L630.94 514.25L666.4 534.72L661.47 537.57Z" fill="#6CBC5B"/>
<path d="M671.6 531.72L636.14 511.25L640.45 508.76L671.97 518.14L648.09 504.35L652.51 501.8L687.97 522.27L683.6 524.79L653.39 516.11L676.01 529.17L671.6 531.72Z" fill="#6CBC5B"/>
<path d="M700.21 515.96C698.973 516.664 697.644 517.189 696.26 517.52C694.612 517.876 692.908 517.876 691.26 517.52C688.914 516.989 686.673 516.07 684.63 514.8L664.83 503.37C662.67 502.123 661.363 500.97 660.91 499.91C660.698 499.41 660.639 498.858 660.74 498.324C660.842 497.79 661.099 497.298 661.48 496.91C662.546 495.765 663.792 494.802 665.17 494.06C666.738 493.143 668.419 492.434 670.17 491.95C671.899 491.477 673.706 491.365 675.48 491.62C677.587 491.966 679.608 492.716 681.43 493.83L686.23 496.6L681.4 499.39L676.4 496.48C675.43 495.88 674.37 495.442 673.26 495.18C672.47 494.999 671.65 494.999 670.86 495.18C670.126 495.365 669.422 495.655 668.77 496.04C668.228 496.334 667.746 496.728 667.35 497.2C667.2 497.403 667.12 497.648 667.12 497.9C667.12 498.152 667.2 498.397 667.35 498.6C667.958 499.365 668.73 499.984 669.61 500.41L690.91 512.71C691.88 513.31 692.94 513.749 694.05 514.01C694.846 514.196 695.674 514.196 696.47 514.01C697.171 513.831 697.845 513.555 698.47 513.19C699.47 512.61 699.95 511.94 699.89 511.19C699.83 510.44 699.1 509.63 697.7 508.82L690.5 504.66L687.43 506.43L684.13 504.53L692.03 499.97L709.43 509.97L705.69 512.13L702.43 510.55C702.525 510.693 702.609 510.843 702.68 511C702.76 511.16 702.82 511.3 702.87 511.41C703.02 511.747 703.102 512.111 703.11 512.48C703.119 512.849 703.054 513.216 702.92 513.56C702.314 514.643 701.359 515.489 700.21 515.96Z" fill="#6CBC5B"/>
<path d="M626.46 613.69C624.811 614.641 623.017 615.317 621.15 615.69C619.159 616.056 617.112 615.988 615.15 615.49C612.537 614.814 610.035 613.766 607.72 612.38L605.72 611.2L608.27 609.73L610.81 608.26L613.34 609.72C614.7 610.541 616.145 611.211 617.65 611.72C618.613 612.055 619.632 612.201 620.65 612.15C621.416 612.085 622.16 611.857 622.83 611.48C623.83 610.9 624.25 610.21 624.07 609.41C623.89 608.61 622.73 607.59 620.57 606.34C619.267 605.539 617.841 604.958 616.35 604.62C615.059 604.4 613.741 604.4 612.45 604.62C611.07 604.84 609.36 605.17 607.34 605.62C605.667 605.925 603.971 606.092 602.27 606.12C600.602 606.134 598.94 605.902 597.34 605.43C595.505 604.88 593.744 604.104 592.1 603.12C590.329 602.195 588.726 600.978 587.36 599.52C586.933 599.099 586.651 598.554 586.554 597.963C586.457 597.372 586.55 596.765 586.82 596.23C587.787 594.77 589.131 593.598 590.71 592.84C593.158 591.371 595.955 590.584 598.81 590.56C601.669 590.577 604.471 591.364 606.92 592.84L611.06 595.23L608.64 596.62L606.17 598.05L603.71 596.63C602.261 595.716 600.653 595.082 598.97 594.76C597.711 594.565 596.424 594.805 595.32 595.44C594.18 596.1 593.75 596.8 594.02 597.54C594.29 598.28 595.28 599.14 596.96 600.11C598.203 600.869 599.582 601.379 601.02 601.61C602.253 601.795 603.507 601.795 604.74 601.61C605.96 601.42 607.17 601.18 608.36 600.91C610.299 600.446 612.267 600.112 614.25 599.91C615.93 599.775 617.62 599.924 619.25 600.35C621.276 600.946 623.215 601.803 625.02 602.9C627.54 604.36 629.177 605.713 629.93 606.96C630.293 607.477 630.499 608.089 630.522 608.721C630.545 609.353 630.385 609.978 630.06 610.52C629.144 611.861 627.906 612.951 626.46 613.69Z" fill="#6CBC5B"/>
<path d="M642.57 603.91L627.33 595.11L601.39 586.74L606.33 583.89L621.67 589.02L623.79 589.95L622.24 588.69L613.5 579.75L618.12 577.08L632.61 592.4L647.55 601.03L642.57 603.91Z" fill="#6CBC5B"/>
<path d="M664.34 591.82C662.688 592.773 660.891 593.448 659.02 593.82C657.029 594.193 654.981 594.125 653.02 593.62C650.423 592.927 647.937 591.866 645.64 590.47L643.64 589.29L646.19 587.82L648.73 586.35L651.25 587.81C652.613 588.631 654.062 589.302 655.57 589.81C656.533 590.145 657.552 590.291 658.57 590.24C659.336 590.175 660.08 589.947 660.75 589.57C661.75 588.99 662.16 588.3 661.99 587.5C661.82 586.7 660.65 585.68 658.49 584.43C657.188 583.629 655.762 583.051 654.27 582.72C652.98 582.495 651.66 582.495 650.37 582.72C648.99 582.95 647.28 583.27 645.26 583.72C643.587 584.029 641.891 584.196 640.19 584.22C638.521 584.234 636.86 584.002 635.26 583.53C633.426 582.979 631.667 582.207 630.02 581.23C628.25 580.298 626.648 579.078 625.28 577.62C624.852 577.201 624.568 576.656 624.469 576.065C624.37 575.473 624.461 574.866 624.73 574.33C625.704 572.872 627.05 571.702 628.63 570.94C631.078 569.471 633.875 568.684 636.73 568.66C639.588 568.682 642.389 569.469 644.84 570.94L648.98 573.33L646.56 574.72L644.09 576.15L641.63 574.73C640.181 573.816 638.573 573.182 636.89 572.86C635.631 572.67 634.346 572.909 633.24 573.54C632.1 574.2 631.67 574.91 631.94 575.65C632.21 576.39 633.2 577.24 634.88 578.21C636.123 578.969 637.502 579.479 638.94 579.71C640.173 579.895 641.427 579.895 642.66 579.71C643.88 579.52 645.09 579.29 646.28 579.01C648.22 578.55 650.187 578.216 652.17 578.01C653.849 577.867 655.541 578.016 657.17 578.45C659.2 579.044 661.143 579.901 662.95 581C665.47 582.46 667.103 583.813 667.85 585.06C668.215 585.576 668.422 586.187 668.447 586.819C668.472 587.451 668.313 588.077 667.99 588.62C667.063 589.978 665.808 591.079 664.34 591.82Z" fill="#6CBC5B"/>
<path d="M679.51 582.58L648.13 564.46L643.25 567.28L639.17 564.93L654.03 556.35L658.11 558.7L653.11 561.58L684.49 579.7L679.51 582.58Z" fill="#6CBC5B"/>
<path d="M692.6 575.02L657.14 554.55L670.97 546.55L675.05 548.9L666.42 553.9L677.16 560.1L684.28 555.99L688.78 558.59L681.66 562.7L693.84 569.7L702.47 564.7L706.47 566.99L692.6 575.02Z" fill="#6CBC5B"/>
<path d="M710.11 564.91L674.65 544.44L680.79 540.9L711.13 552.48L691.13 534.93L697.21 531.42L732.67 551.89L728.25 554.44L700.89 538.64L723.1 557.41L719.68 559.41L687.17 546.58L714.53 562.38L710.11 564.91Z" fill="#6CBC5B"/>
<path d="M1067.72 395.18L863.41 513.14L717.88 429.12L922.19 311.16L1067.72 395.18Z" fill="white"/>
<path d="M851.19 453.75L815.72 433.28L820.61 430.46L852.11 448.65L859.74 444.24L863.74 446.52L851.19 453.75Z" fill="#6CBC5B"/>
<path d="M866.72 444.81L831.22 424.38L836.15 421.53L871.61 442L866.72 444.81Z" fill="#6CBC5B"/>
<path d="M876.81 438.96L841.35 418.49L851.69 412.49C853.465 411.436 855.486 410.867 857.55 410.84C859.664 410.833 861.74 411.408 863.55 412.5L867.69 414.89C868.619 415.401 869.468 416.044 870.21 416.8C870.756 417.296 871.11 417.969 871.21 418.7C871.243 418.978 871.215 419.259 871.129 419.525C871.043 419.791 870.9 420.035 870.71 420.24C870.321 420.691 869.874 421.088 869.38 421.42C870.034 421.047 870.724 420.743 871.44 420.51C872.271 420.249 873.139 420.124 874.01 420.14C875.186 420.149 876.356 420.31 877.49 420.62C878.801 420.978 880.059 421.51 881.23 422.2L886.15 425.04C888.15 426.2 889.393 427.25 889.88 428.19C890.123 428.597 890.234 429.069 890.198 429.542C890.162 430.014 889.981 430.464 889.68 430.83C888.827 431.841 887.788 432.679 886.62 433.3L876.81 438.96ZM861.72 424.48L864.99 422.59C865.99 421.99 866.47 421.32 866.3 420.59C866.13 419.86 865.23 419.01 863.59 418.06L859.81 415.88C858.712 415.193 857.469 414.772 856.18 414.65C855.21 414.567 854.237 414.768 853.38 415.23L849.54 417.45L861.72 424.48ZM878.72 434.32L882.41 432.19C882.914 431.939 883.336 431.55 883.63 431.07C883.82 430.68 883.7 430.22 883.26 429.68C882.516 428.908 881.647 428.265 880.69 427.78L876.19 425.18C874.929 424.34 873.464 423.856 871.95 423.78C870.832 423.811 869.739 424.12 868.77 424.68L865.4 426.68L878.72 434.32Z" fill="#6CBC5B"/>
<path d="M898.01 426.72L862.55 406.25L873.15 400.13C874.968 399.048 877.035 398.452 879.15 398.4C881.263 398.392 883.338 398.963 885.15 400.05L890.79 403.31C892.75 404.437 893.87 405.623 894.15 406.87C894.44 408.12 893.72 409.3 892.01 410.43C893.199 409.841 894.53 409.601 895.85 409.74C897.525 409.989 899.17 410.408 900.76 410.99L915.97 416.34L910.46 419.52L896.2 414.11C895.058 413.718 893.896 413.384 892.72 413.11C891.846 412.831 890.899 412.907 890.08 413.32L887.53 414.79L903.13 423.79L898.01 426.72ZM883.53 412.43L886.86 410.51C888.07 409.81 888.57 409.1 888.35 408.4C888.13 407.7 887.28 406.91 885.8 406.06L881.3 403.46C880.215 402.779 878.992 402.349 877.72 402.2C876.65 402.129 875.583 402.383 874.66 402.93L870.87 405.12L883.53 412.43Z" fill="#6CBC5B"/>
<path d="M917.65 415.38L888.16 391.45L895.16 387.45L936.49 404.53L930.98 407.72L922.53 404.28L916.92 407.52L922.98 412.34L917.65 415.38ZM914.05 405.74L919.51 402.59L897.07 392.75L914.05 405.74Z" fill="#6CBC5B"/>
<path d="M939.63 402.7L904.17 382.22L914.77 376.1C916.588 375.018 918.655 374.422 920.77 374.37C922.883 374.362 924.958 374.933 926.77 376.02L932.41 379.28C934.37 380.407 935.49 381.593 935.77 382.84C936.06 384.09 935.34 385.27 933.63 386.4C934.819 385.811 936.15 385.571 937.47 385.71C939.144 385.964 940.788 386.382 942.38 386.96L957.59 392.32L952.08 395.5L937.82 390.08C936.681 389.689 935.522 389.355 934.35 389.08C933.473 388.801 932.522 388.876 931.7 389.29L929.15 390.76L944.75 399.76L939.63 402.7ZM925.15 388.4L928.48 386.48C929.69 385.78 930.19 385.08 929.97 384.37C929.75 383.66 928.9 382.88 927.42 382.03L922.92 379.43C921.835 378.75 920.612 378.319 919.34 378.17C918.27 378.099 917.203 378.353 916.28 378.9L912.49 381.09L925.15 388.4Z" fill="#6CBC5B"/>
<path d="M964.47 388.38L949.23 379.58L923.29 371.2L928.23 368.35L943.57 373.49L945.69 374.41L944.14 373.16L935.4 364.16L940.02 361.49L954.51 376.82L969.45 385.45L964.47 388.38Z" fill="#6CBC5B"/>
<path d="M638.8 436.77L456.26 542.17L310.73 458.14L493.27 352.75L638.8 436.77Z" fill="white"/>
<path d="M447.33 480.88L411.87 460.4L416.81 457.55L452.27 478.03L447.33 480.88Z" fill="#42844D"/>
<path d="M457.46 475.03L422 454.55L426.32 452.06L457.84 461.44L433.96 447.65L438.37 445.1L473.83 465.58L469.47 468.1L439.26 459.42L461.88 472.48L457.46 475.03Z" fill="#42844D"/>
<path d="M479.03 462.58L443.57 442.1L457.39 434.1L461.47 436.46L452.84 441.46L463.58 447.66L470.7 443.55L475.2 446.15L468.08 450.26L484.23 459.58L479.03 462.58Z" fill="#42844D"/>
<path d="M496.23 452.65L460.77 432.17L471.37 426.05C473.187 424.966 475.255 424.373 477.37 424.33C479.483 424.314 481.559 424.882 483.37 425.97L489.01 429.23C490.97 430.363 492.09 431.55 492.37 432.79C492.66 434.04 491.94 435.23 490.23 436.35C491.419 435.761 492.751 435.521 494.07 435.66C495.744 435.914 497.389 436.333 498.98 436.91L514.19 442.27L508.68 445.45L494.42 440.03C493.17 439.6 492.02 439.25 490.94 439.03C490.066 438.752 489.119 438.827 488.3 439.24L485.75 440.71L501.35 449.71L496.23 452.65ZM481.72 438.38L485.05 436.46C486.26 435.76 486.76 435.06 486.54 434.35C486.32 433.64 485.47 432.87 483.99 432.01L479.49 429.41C478.405 428.73 477.182 428.299 475.91 428.15C474.84 428.079 473.773 428.333 472.85 428.88L469.06 431.07L481.72 438.38Z" fill="#42844D"/>
<path d="M515.87 441.31L486.38 417.38L493.38 413.38L534.71 430.47L529.2 433.65L520.75 430.21L515.14 433.45L521.2 438.27L515.87 441.31ZM512.28 431.67L517.73 428.52L495.29 418.69L512.28 431.67Z" fill="#42844D"/>
<path d="M328.08 414.4L145.53 519.79L0 435.77L182.55 330.37L328.08 414.4Z" fill="white"/>
<path d="M129.65 462.52L94.19 442.05L100.32 438.51L130.66 450.09L110.66 432.54L116.74 429.03L152.2 449.5L147.78 452.05L120.42 436.25L142.64 455.02L139.21 457.02L106.7 444.19L134.06 459.99L129.65 462.52Z" fill="#00B59B"/>
<path d="M157.34 446.53L121.88 426.06L126.76 423.24L158.26 441.42L165.9 437.01L169.9 439.3L157.34 446.53Z" fill="#00B59B"/>
<path d="M180.29 433.62C178.517 434.672 176.539 435.33 174.49 435.55C172.46 435.759 170.41 435.593 168.44 435.06C166.337 434.486 164.319 433.635 162.44 432.53C160.738 431.668 159.285 430.383 158.22 428.8C157.856 428.252 157.698 427.592 157.775 426.938C157.852 426.284 158.159 425.679 158.64 425.23C157.487 425.019 156.351 424.725 155.24 424.35C153.917 423.909 152.649 423.318 151.46 422.59C149.407 421.323 148.31 420.04 148.17 418.74C148.03 417.44 149.05 416.157 151.23 414.89C152.31 414.267 153.433 413.722 154.59 413.26C155.76 412.8 156.8 412.41 157.73 412.11C158.398 411.872 159.084 411.685 159.78 411.55L163.98 413.97L162.56 414.41C161.75 414.67 160.84 414.99 159.81 415.41C158.807 415.78 157.836 416.235 156.91 416.77C155.98 417.31 155.48 417.86 155.42 418.42C155.401 418.725 155.455 419.029 155.576 419.309C155.698 419.589 155.884 419.836 156.12 420.03C156.764 420.598 157.511 421.04 158.32 421.33C159.292 421.699 160.296 421.977 161.32 422.16C161.74 422.24 162.32 422.33 163.14 422.43L165.73 422.7L168.52 422.96C169.44 423.05 170.28 423.12 171.03 423.17C171.78 423.22 172.36 423.27 172.77 423.31L167.06 419.95L174.7 415.54L178.3 417.62L173.94 420.14C174.86 420.673 175.62 421.123 176.22 421.49L177.79 422.49C178.23 422.76 178.68 423.07 179.13 423.41C180.84 423.41 182.51 423.41 184.13 423.41C185.366 423.399 186.602 423.323 187.83 423.18L192.99 426.18C191.683 426.664 190.303 426.921 188.91 426.94C186.91 427.09 184.72 427.17 182.42 427.16C183.133 427.831 183.556 428.752 183.6 429.73C183.556 430.56 183.199 431.343 182.6 431.92C181.916 432.595 181.138 433.167 180.29 433.62ZM176.6 431.25C177.68 430.63 178.21 429.95 178.21 429.25C178.174 428.815 178.039 428.395 177.815 428.021C177.592 427.646 177.285 427.328 176.92 427.09C174.45 426.95 172 426.79 169.59 426.61C167.18 426.43 165.12 426.26 163.42 426.08C163.238 426.336 163.129 426.637 163.104 426.951C163.08 427.264 163.14 427.578 163.28 427.86C163.9 428.811 164.777 429.567 165.81 430.04C167.598 431.211 169.636 431.944 171.76 432.18C173.431 432.384 175.123 432.058 176.6 431.25Z" fill="#00B59B"/>
<path d="M197.24 423.49L161.79 403.02L171.97 397.14C173.271 396.376 174.69 395.835 176.17 395.54C177.617 395.265 179.103 395.265 180.55 395.54C182.191 395.881 183.763 396.496 185.2 397.36L206.2 409.48C207.7 410.2 208.988 411.295 209.94 412.66C210.202 413.08 210.33 413.571 210.307 414.065C210.283 414.56 210.11 415.036 209.81 415.43C208.978 416.478 207.936 417.34 206.75 417.96L197.24 423.49ZM199.33 418.75L202.91 416.68C203.78 416.18 204.18 415.62 204.12 414.98C204.06 414.34 203.23 413.57 201.63 412.64L180.87 400.64C179.643 399.841 178.246 399.341 176.79 399.18C175.745 399.111 174.703 399.347 173.79 399.86L170.2 401.93L199.33 418.75Z" fill="#00B59B"/>
<path d="M218.6 411.16L183.14 390.69L188.03 387.87L219.53 406.05L227.16 401.64L231.16 403.93L218.6 411.16Z" fill="#00B59B"/>
<path d="M409.5 163.3L226.96 268.7L81.42 184.67L263.97 79.28L409.5 163.3Z" fill="white"/>
<path d="M220.29 206.1L188.91 187.98L184.03 190.8L179.95 188.45L194.81 179.87L198.89 182.22L193.89 185.1L225.27 203.22L220.29 206.1Z" fill="#FFBC00"/>
<path d="M241.43 194.73C239.879 195.635 238.219 196.337 236.49 196.82C234.649 197.284 232.725 197.315 230.87 196.91C228.306 196.312 225.857 195.299 223.62 193.91L204.48 182.91C202.32 181.67 201.02 180.51 200.57 179.46C200.363 178.961 200.304 178.413 200.4 177.881C200.495 177.349 200.742 176.856 201.11 176.46C202.153 175.297 203.392 174.326 204.77 173.59C206.334 172.672 208.016 171.972 209.77 171.51C211.513 171.058 213.327 170.953 215.11 171.2C217.235 171.527 219.274 172.271 221.11 173.39L240.19 184.39C243.03 186.03 244.766 187.453 245.4 188.66C245.713 189.159 245.856 189.746 245.809 190.333C245.763 190.92 245.528 191.477 245.14 191.92C244.077 193.066 242.821 194.017 241.43 194.73ZM238.01 192.73C238.572 192.436 239.063 192.023 239.45 191.52C239.602 191.318 239.685 191.073 239.685 190.82C239.685 190.567 239.602 190.321 239.45 190.12C238.847 189.379 238.089 188.778 237.23 188.36L215.93 176.06C214.998 175.49 213.987 175.062 212.93 174.79C212.12 174.606 211.28 174.606 210.47 174.79C209.734 174.965 209.027 175.245 208.37 175.62C207.819 175.914 207.338 176.323 206.96 176.82C206.823 177.032 206.758 177.283 206.774 177.535C206.791 177.787 206.887 178.027 207.05 178.22C207.654 178.95 208.403 179.546 209.25 179.97L230.55 192.27C231.496 192.848 232.524 193.28 233.6 193.55C234.39 193.724 235.209 193.724 236 193.55C236.704 193.38 237.381 193.111 238.01 192.75V192.73Z" fill="#FFBC00"/>
<path d="M262.37 182.64C260.819 183.545 259.159 184.247 257.43 184.73C255.588 185.189 253.666 185.22 251.81 184.82C249.246 184.222 246.797 183.209 244.56 181.82L225.42 170.82C223.26 169.58 221.96 168.42 221.51 167.36C221.301 166.861 221.24 166.312 221.336 165.78C221.432 165.248 221.68 164.754 222.05 164.36C223.084 163.154 224.327 162.144 225.72 161.38C227.282 160.458 228.965 159.758 230.72 159.3C232.463 158.848 234.277 158.743 236.06 158.99C238.185 159.317 240.224 160.061 242.06 161.18L261.14 172.18C263.98 173.82 265.717 175.243 266.35 176.45C266.663 176.949 266.807 177.536 266.76 178.123C266.713 178.71 266.478 179.267 266.09 179.71C265.034 180.9 263.774 181.892 262.37 182.64ZM258.95 180.64C259.512 180.346 260.003 179.933 260.39 179.43C260.541 179.228 260.623 178.982 260.623 178.73C260.623 178.478 260.541 178.232 260.39 178.03C259.78 177.291 259.02 176.691 258.16 176.27L236.86 163.97C235.929 163.4 234.917 162.972 233.86 162.7C233.05 162.516 232.21 162.516 231.4 162.7C230.664 162.875 229.957 163.155 229.3 163.53C228.749 163.824 228.268 164.233 227.89 164.73C227.753 164.942 227.688 165.193 227.704 165.445C227.721 165.697 227.817 165.937 227.98 166.13C228.584 166.86 229.333 167.456 230.18 167.88L251.48 180.18C252.426 180.758 253.455 181.189 254.53 181.46C255.321 181.634 256.14 181.634 256.93 181.46C257.639 181.292 258.319 181.023 258.95 180.66V180.64Z" fill="#FFBC00"/>
<path d="M274.8 174.63L239.34 154.16L244.22 151.34L275.72 169.52L283.36 165.11L287.36 167.4L274.8 174.63Z" fill="#FFBC00"/>
<path d="M296.72 162.45C295.068 163.403 293.271 164.078 291.4 164.45C289.409 164.823 287.361 164.755 285.4 164.25C282.802 163.557 280.317 162.496 278.02 161.1L276.02 159.92L278.57 158.45L281.11 156.98L283.63 158.44C284.993 159.261 286.442 159.932 287.95 160.44C288.913 160.775 289.932 160.921 290.95 160.87C291.716 160.805 292.46 160.577 293.13 160.2C294.13 159.63 294.55 158.93 294.37 158.13C294.19 157.33 293.03 156.31 290.87 155.06C289.567 154.26 288.141 153.679 286.65 153.34C285.359 153.12 284.041 153.12 282.75 153.34C281.37 153.56 279.66 153.89 277.64 154.34C275.966 154.645 274.271 154.812 272.57 154.84C270.902 154.854 269.24 154.622 267.64 154.15C265.804 153.6 264.044 152.824 262.4 151.84C260.629 150.915 259.026 149.698 257.66 148.24C257.232 147.82 256.949 147.275 256.852 146.683C256.755 146.092 256.848 145.485 257.12 144.95C258.087 143.49 259.431 142.319 261.01 141.56C263.458 140.091 266.255 139.304 269.11 139.28C271.969 139.297 274.771 140.084 277.22 141.56L281.36 143.95L278.94 145.34L276.47 146.77L274.01 145.35C272.561 144.436 270.953 143.802 269.27 143.48C268.011 143.29 266.725 143.529 265.62 144.16C264.48 144.82 264.05 145.53 264.32 146.27C264.59 147.01 265.58 147.86 267.26 148.83C268.503 149.589 269.882 150.099 271.32 150.33C272.553 150.515 273.807 150.515 275.04 150.33C276.26 150.14 277.47 149.9 278.66 149.63C280.6 149.17 282.567 148.836 284.55 148.63C286.23 148.492 287.92 148.641 289.55 149.07C291.58 149.664 293.523 150.521 295.33 151.62C297.85 153.08 299.483 154.433 300.23 155.68C300.595 156.196 300.802 156.807 300.827 157.439C300.852 158.071 300.693 158.697 300.37 159.24C299.445 160.602 298.189 161.706 296.72 162.45Z" fill="#FFBC00"/>
<path d="M900.3 84.02L665.64 219.51L520.11 135.49L754.77 0L900.3 84.02Z" fill="white"/>
<path d="M649.36 162.46L613.9 141.99L618.79 139.17L650.29 157.35L657.92 152.94L661.92 155.23L649.36 162.46Z" fill="#00B59B"/>
<path d="M671.29 150.28C669.642 151.233 667.848 151.908 665.98 152.28C663.989 152.651 661.942 152.583 659.98 152.08C657.381 151.391 654.895 150.33 652.6 148.93L650.6 147.75L653.15 146.28L655.7 144.81L658.22 146.27C659.579 147.093 661.024 147.763 662.53 148.27C663.492 148.609 664.512 148.755 665.53 148.7C666.296 148.639 667.039 148.414 667.71 148.04C668.71 147.46 669.13 146.77 668.95 145.96C668.77 145.15 667.61 144.14 665.45 142.89C664.147 142.089 662.722 141.508 661.23 141.17C659.939 140.95 658.621 140.95 657.33 141.17C655.95 141.4 654.24 141.72 652.22 142.17C650.551 142.479 648.858 142.646 647.16 142.67C645.488 142.685 643.824 142.453 642.22 141.98C640.386 141.429 638.627 140.657 636.98 139.68C635.211 138.748 633.609 137.528 632.24 136.07C631.812 135.65 631.529 135.105 631.432 134.513C631.335 133.922 631.429 133.315 631.7 132.78C632.667 131.32 634.012 130.149 635.59 129.39C638.038 127.921 640.835 127.134 643.69 127.11C646.548 127.136 649.347 127.923 651.8 129.39L655.94 131.78L653.52 133.17C652.71 133.65 651.88 134.17 651.05 134.6L648.59 133.18C647.141 132.266 645.533 131.632 643.85 131.31C642.59 131.118 641.303 131.361 640.2 132C639.06 132.66 638.63 133.36 638.9 134.1C639.17 134.84 640.16 135.69 641.84 136.66C643.083 137.419 644.462 137.929 645.9 138.16C647.137 138.34 648.393 138.34 649.63 138.16C650.85 137.96 652.05 137.73 653.24 137.45C655.179 136.985 657.146 136.651 659.13 136.45C660.809 136.305 662.5 136.451 664.13 136.88C666.156 137.476 668.096 138.333 669.9 139.43C672.42 140.89 674.06 142.24 674.81 143.5C675.173 144.016 675.378 144.626 675.401 145.256C675.424 145.886 675.264 146.509 674.94 147.05C674.017 148.419 672.761 149.531 671.29 150.28Z" fill="#00B59B"/>
<path d="M687.19 140.62L646.43 123.21L651.52 120.27L684.25 134.9H684.2L658.95 115.9L663.89 113.05L693.99 136.61L687.19 140.62Z" fill="#00B59B"/>
<path d="M704.91 133.51L682.18 99.87L685.76 97.8L708.44 131.47L704.91 133.51Z" fill="#00B59B"/>
<path d="M728.03 117.04L692.57 96.5699L702.96 90.5699C704.776 89.4843 706.844 88.8915 708.96 88.85C711.074 88.8518 713.149 89.4292 714.96 90.52L721.26 94.16C722.614 94.9089 723.87 95.8225 725 96.88C725.427 97.228 725.766 97.6722 725.988 98.1763C726.211 98.6803 726.311 99.2299 726.28 99.78C726.16 100.78 725.23 101.78 723.5 102.78L718.62 105.6L733.26 114.05L728.03 117.04ZM715.35 103.72L718.51 101.89C719.51 101.29 719.86 100.57 719.44 99.72C719.02 98.87 717.75 97.85 715.63 96.62L712.45 94.79C711.012 93.8769 709.424 93.2236 707.76 92.86C706.723 92.6247 705.636 92.7628 704.69 93.25L700.95 95.41L715.35 103.72Z" fill="#00B59B"/>
<path d="M744.81 107.38L715.33 83.46L722.33 79.46L763.66 96.54L758.16 99.72L749.71 96.28L744.1 99.52L750.1 104.34L744.81 107.38ZM741.22 97.75L746.68 94.6L724.23 84.76L741.22 97.75Z" fill="#00B59B"/>
<path d="M774.38 90.76C772.733 91.7171 770.939 92.393 769.07 92.76C767.079 93.1312 765.032 93.063 763.07 92.5601C760.47 91.8756 757.983 90.8143 755.69 89.41L753.69 88.23L756.24 86.76L758.79 85.29L761.3 86.75C762.663 87.571 764.112 88.2416 765.62 88.75C766.582 89.0894 767.601 89.2355 768.62 89.1801C769.385 89.1188 770.129 88.8937 770.8 88.52C771.8 87.94 772.22 87.25 772.04 86.45C771.86 85.65 770.7 84.62 768.54 83.38C767.241 82.572 765.814 81.9905 764.32 81.66C763.03 81.4299 761.71 81.4299 760.42 81.66C759.04 81.88 757.33 82.2 755.31 82.66C753.637 82.9696 751.941 83.1369 750.24 83.16C748.572 83.1745 746.91 82.9419 745.31 82.47C743.476 81.9192 741.717 81.1469 740.07 80.17C738.3 79.2384 736.699 78.0183 735.33 76.5601C734.903 76.1419 734.62 75.5983 734.523 75.0084C734.426 74.4185 734.519 73.8131 734.79 73.28C735.759 71.8188 737.102 70.6446 738.68 69.88C741.13 68.4154 743.926 67.6285 746.78 67.6C749.638 67.6262 752.437 68.4132 754.89 69.88L759.03 72.27L756.61 73.67L754.14 75.09L751.68 73.67C750.228 72.7604 748.622 72.1264 746.94 71.8C745.68 71.6081 744.393 71.8514 743.29 72.49C742.15 73.15 741.72 73.85 741.99 74.59C742.26 75.33 743.25 76.18 744.93 77.15C746.173 77.9118 747.552 78.4247 748.99 78.66C750.227 78.8402 751.483 78.8402 752.72 78.66C753.94 78.46 755.14 78.23 756.33 77.95C758.269 77.485 760.236 77.1509 762.22 76.95C763.899 76.8038 765.591 76.9494 767.22 77.38C769.248 77.9782 771.191 78.8353 773 79.9301C775.52 81.3901 777.16 82.74 777.91 84C778.273 84.5158 778.478 85.1257 778.501 85.7557C778.524 86.3858 778.364 87.0091 778.04 87.55C777.112 88.9132 775.852 90.0178 774.38 90.76Z" fill="#00B59B"/>
<path d="M794.34 79.25C792.688 80.2032 790.891 80.8789 789.02 81.25C787.03 81.6228 784.981 81.5546 783.02 81.05C780.42 80.3656 777.933 79.3043 775.64 77.9L773.64 76.73L776.18 75.25L778.73 73.78L781.25 75.24C782.611 76.059 784.056 76.7295 785.56 77.24C786.522 77.5786 787.542 77.7248 788.56 77.67C789.323 77.6089 790.063 77.3837 790.73 77.01C791.73 76.43 792.15 75.7401 791.98 74.9401C791.81 74.1401 790.63 73.11 788.47 71.87C787.173 71.0587 785.745 70.4769 784.25 70.15C782.959 69.9297 781.641 69.9297 780.35 70.15C778.97 70.37 777.26 70.69 775.24 71.15C773.571 71.4596 771.878 71.6269 770.18 71.65C768.512 71.6652 766.85 71.4326 765.25 70.96C763.413 70.4112 761.649 69.6389 760 68.66C758.231 67.7317 756.632 66.5112 755.27 65.05C754.841 64.633 754.557 64.09 754.458 63.5001C754.359 62.9102 754.451 62.3041 754.72 61.77C755.687 60.3099 757.031 59.1385 758.61 58.38C761.057 56.9074 763.854 56.1167 766.71 56.09C769.568 56.1148 772.368 56.9019 774.82 58.37L778.96 60.76L776.54 62.16L774.07 63.58L771.62 62.16C770.165 61.2509 768.555 60.617 766.87 60.29C765.61 60.0981 764.323 60.3414 763.22 60.98C762.08 61.6466 761.65 62.3466 761.93 63.08C762.2 63.82 763.18 64.67 764.86 65.64C766.103 66.4005 767.482 66.9132 768.92 67.15C770.157 67.3303 771.413 67.3303 772.65 67.15C773.87 66.95 775.07 66.72 776.26 66.45C778.201 65.9806 780.173 65.6464 782.16 65.45C783.839 65.3038 785.531 65.4494 787.16 65.88C789.187 66.4782 791.127 67.3389 792.93 68.4401C795.45 69.8934 797.087 71.2467 797.84 72.5C798.204 73.0173 798.409 73.6289 798.432 74.2607C798.456 74.8926 798.295 75.5176 797.97 76.0601C797.046 77.4106 795.798 78.5074 794.34 79.25Z" fill="#00B59B"/>
<path d="M965.02 248.44L669.83 418.86L524.3 334.84L819.48 164.41L965.02 248.44Z" fill="white"/>
<path d="M665.1 355.98C663.55 356.887 661.89 357.589 660.16 358.07C658.319 358.534 656.395 358.565 654.54 358.16C651.977 357.559 649.529 356.546 647.29 355.16L628.15 344.16C625.99 342.913 624.687 341.76 624.24 340.7C624.031 340.201 623.97 339.652 624.066 339.12C624.162 338.588 624.41 338.094 624.78 337.7C625.824 336.542 627.059 335.571 628.43 334.83C629.997 333.919 631.679 333.219 633.43 332.75C635.174 332.304 636.987 332.199 638.77 332.44C640.896 332.768 642.936 333.516 644.77 334.64L663.85 345.64C666.69 347.28 668.42 348.7 669.06 349.91C669.374 350.411 669.517 351 669.469 351.59C669.42 352.179 669.182 352.737 668.79 353.18C667.733 354.321 666.484 355.269 665.1 355.98ZM661.68 353.98C662.242 353.686 662.733 353.273 663.12 352.77C663.272 352.568 663.355 352.323 663.355 352.07C663.355 351.817 663.272 351.571 663.12 351.37C662.514 350.631 661.757 350.031 660.9 349.61L639.6 337.31C638.669 336.739 637.658 336.311 636.6 336.04C635.794 335.855 634.956 335.855 634.15 336.04C633.413 336.211 632.705 336.49 632.05 336.87C631.498 337.158 631.017 337.564 630.64 338.06C630.503 338.272 630.438 338.523 630.454 338.775C630.471 339.027 630.567 339.267 630.73 339.46C631.334 340.19 632.083 340.786 632.93 341.21L654.23 353.51C655.158 354.089 656.17 354.521 657.23 354.79C658.021 354.964 658.839 354.964 659.63 354.79C660.363 354.635 661.068 354.369 661.72 354L661.68 353.98Z" fill="#42844D"/>
<path d="M677.53 347.97L642.07 327.5L652.67 321.38C654.486 320.293 656.554 319.697 658.67 319.65C660.783 319.642 662.858 320.213 664.67 321.3L670.31 324.56C672.27 325.687 673.393 326.873 673.68 328.12C673.967 329.367 673.25 330.553 671.53 331.68C672.719 331.091 674.05 330.851 675.37 330.99C677.048 331.24 678.696 331.659 680.29 332.24L695.49 337.59L689.98 340.77L675.72 335.38C674.578 334.988 673.416 334.654 672.24 334.38C671.365 334.109 670.418 334.188 669.6 334.6L667.05 336.07L682.65 345.07L677.53 347.97ZM663.05 333.67L666.38 331.76C667.59 331.06 668.09 330.35 667.87 329.65C667.65 328.95 666.8 328.16 665.32 327.31L660.82 324.71C659.735 324.029 658.512 323.599 657.24 323.45C656.172 323.374 655.107 323.629 654.19 324.18L650.39 326.37L663.05 333.67Z" fill="#42844D"/>
<path d="M707.81 331.32C706.259 332.224 704.599 332.927 702.87 333.41C701.009 333.891 699.062 333.939 697.18 333.55C694.604 332.961 692.144 331.947 689.9 330.55L670.76 319.55C668.6 318.303 667.307 317.143 666.88 316.07C666.666 315.555 666.608 314.989 666.713 314.441C666.818 313.894 667.081 313.389 667.47 312.99C668.522 311.826 669.767 310.852 671.15 310.11C672.714 309.189 674.396 308.486 676.15 308.02C677.867 307.577 679.656 307.485 681.41 307.75C683.511 308.107 685.524 308.864 687.34 309.98L694.34 313.98L689.34 316.86L682.2 312.74C681.226 312.135 680.163 311.686 679.05 311.41C678.29 311.24 677.501 311.24 676.74 311.41C676.038 311.574 675.365 311.84 674.74 312.2C674.211 312.479 673.745 312.864 673.37 313.33C673.229 313.525 673.152 313.759 673.152 314C673.152 314.241 673.229 314.475 673.37 314.67C673.999 315.435 674.787 316.052 675.68 316.48L696.98 328.78C697.948 329.374 699 329.819 700.1 330.1C700.87 330.279 701.67 330.279 702.44 330.1C703.142 329.937 703.816 329.671 704.44 329.31C704.975 329.032 705.446 328.643 705.82 328.17C705.95 327.967 706.013 327.728 705.998 327.487C705.984 327.246 705.893 327.016 705.74 326.83C705.12 326.072 704.342 325.457 703.46 325.03L697.1 321.36L702.1 318.48L706.42 320.97C709.26 322.61 711.013 324.023 711.68 325.21C712.007 325.689 712.169 326.262 712.14 326.842C712.111 327.421 711.893 327.976 711.52 328.42C710.462 329.596 709.207 330.578 707.81 331.32Z" fill="#42844D"/>
<path d="M719.88 323.52L684.42 303.05L689.35 300.2L704.23 308.79L710.83 304.98L695.95 296.39L700.89 293.54L736.35 314.01L731.41 316.86L715.15 307.48L708.55 311.29L724.81 320.67L719.88 323.52Z" fill="#42844D"/>
<path d="M741.54 311.01L706.08 290.54L719.91 282.54L723.99 284.9L715.36 289.9L726.1 296.1L733.22 291.99L737.72 294.59L730.6 298.7L742.78 305.7L751.41 300.7L755.41 302.98L741.54 311.01Z" fill="#42844D"/>
<path d="M766.65 297.01C764.996 297.959 763.2 298.634 761.33 299.01C759.339 299.373 757.293 299.304 755.33 298.81C752.728 298.116 750.24 297.051 747.94 295.65L745.94 294.48L748.48 293.01L751.03 291.54L753.55 292.99C754.911 293.809 756.356 294.48 757.86 294.99C758.822 295.329 759.841 295.475 760.86 295.42C761.622 295.359 762.363 295.134 763.03 294.76C764.03 294.18 764.45 293.49 764.28 292.69C764.11 291.89 762.93 290.86 760.77 289.62C759.473 288.809 758.045 288.227 756.55 287.9C755.259 287.68 753.941 287.68 752.65 287.9C751.27 288.12 749.56 288.45 747.54 288.9C745.87 289.202 744.177 289.365 742.48 289.39C740.812 289.404 739.152 289.175 737.55 288.71C735.714 288.153 733.951 287.378 732.3 286.4C730.529 285.475 728.929 284.254 727.57 282.79C727.141 282.373 726.857 281.83 726.758 281.24C726.659 280.65 726.751 280.044 727.02 279.51C727.987 278.05 729.331 276.878 730.91 276.12C733.357 274.647 736.154 273.857 739.01 273.83C741.868 273.855 744.668 274.642 747.12 276.11L751.26 278.5L748.84 279.9L746.37 281.32L743.91 279.9C742.459 278.989 740.852 278.355 739.17 278.03C737.91 277.838 736.623 278.081 735.52 278.72C734.38 279.387 733.95 280.087 734.23 280.82C734.5 281.56 735.48 282.41 737.16 283.39C738.403 284.149 739.782 284.659 741.22 284.89C742.457 285.075 743.714 285.075 744.95 284.89C746.17 284.69 747.37 284.46 748.56 284.19C750.501 283.721 752.473 283.387 754.46 283.19C756.139 283.049 757.83 283.194 759.46 283.62C761.487 284.218 763.427 285.079 765.23 286.18C767.75 287.63 769.39 288.99 770.14 290.24C770.504 290.757 770.709 291.369 770.733 292.001C770.756 292.633 770.595 293.258 770.27 293.8C769.352 295.157 768.107 296.261 766.65 297.01Z" fill="#42844D"/>
<path d="M781.81 287.76L750.43 269.65L745.55 272.47L741.47 270.11L756.33 261.53L760.41 263.89L755.41 266.77L786.79 284.88L781.81 287.76Z" fill="#42844D"/>
<path d="M794.91 280.2L759.45 259.73L770.05 253.61C771.868 252.528 773.935 251.932 776.05 251.88C778.163 251.872 780.238 252.443 782.05 253.53L787.69 256.79C789.65 257.917 790.77 259.103 791.05 260.35C791.34 261.6 790.62 262.78 788.91 263.91C790.099 263.321 791.43 263.081 792.75 263.22C794.425 263.469 796.07 263.888 797.66 264.47L812.87 269.82L807.36 273L793.1 267.59C791.959 267.193 790.797 266.859 789.62 266.59C788.746 266.311 787.799 266.387 786.98 266.8L784.43 268.27L800.03 277.27L794.91 280.2ZM780.43 265.91L783.76 263.99C784.97 263.29 785.47 262.58 785.25 261.88C785.03 261.18 784.18 260.39 782.7 259.54L778.2 256.94C777.115 256.26 775.892 255.829 774.62 255.68C773.55 255.609 772.483 255.863 771.56 256.41L767.77 258.6L780.43 265.91Z" fill="#42844D"/>
<path d="M814.55 268.86L785.06 244.94L792.06 240.94L833.39 258.02L827.88 261.2L819.43 257.77L813.82 261.01L819.88 265.82L814.55 268.86ZM810.95 259.23L816.41 256.08L793.97 246.24L810.95 259.23Z" fill="#42844D"/>
<path d="M837.77 255.45L806.4 237.34L801.51 240.16L797.43 237.8L812.29 229.22L816.37 231.58L811.37 234.46L842.75 252.58L837.77 255.45Z" fill="#42844D"/>
<path d="M850.87 247.89L815.41 227.42L829.23 219.42L833.31 221.78L824.69 226.78L835.42 232.98L842.54 228.87L847.04 231.47L839.92 235.58L852.11 242.58L860.73 237.58L864.73 239.87L850.87 247.89Z" fill="#42844D"/>
<path d="M633.87 237.85L359.85 396.06L214.32 312.03L488.34 153.83L633.87 237.85Z" fill="white"/>
<path d="M349.61 335.52L309.42 317.78L314.51 314.84L345.69 329.06L321.58 310.76L325.68 308.39L357.27 322.39L332.75 304.33L337.84 301.39L368.57 324.59L362.81 327.92L336.03 316.78L355.43 332.18L349.61 335.52Z" fill="#00B59B"/>
<path d="M384.83 316.02C383.262 316.933 381.581 317.635 379.83 318.11C377.992 318.574 376.072 318.605 374.22 318.2C371.657 317.599 369.208 316.586 366.97 315.2L347.83 304.2C345.67 302.953 344.367 301.8 343.92 300.74C343.708 300.242 343.646 299.692 343.742 299.159C343.838 298.626 344.088 298.133 344.46 297.74C345.502 296.58 346.737 295.609 348.11 294.87C349.677 293.959 351.359 293.259 353.11 292.79C354.853 292.344 356.667 292.239 358.45 292.48C360.576 292.808 362.616 293.556 364.45 294.68L383.53 305.68C386.37 307.32 388.1 308.74 388.74 309.95C389.054 310.451 389.197 311.04 389.149 311.63C389.1 312.219 388.862 312.777 388.47 313.22C387.428 314.356 386.196 315.304 384.83 316.02ZM381.41 314.02C381.972 313.726 382.463 313.313 382.85 312.81C383.002 312.608 383.085 312.363 383.085 312.11C383.085 311.857 383.002 311.611 382.85 311.41C382.244 310.671 381.487 310.071 380.63 309.65L359.33 297.35C358.399 296.779 357.388 296.35 356.33 296.08C355.524 295.895 354.686 295.895 353.88 296.08C353.143 296.251 352.435 296.53 351.78 296.91C351.228 297.198 350.747 297.604 350.37 298.1C350.234 298.314 350.169 298.566 350.186 298.82C350.202 299.073 350.298 299.315 350.46 299.51C351.068 300.232 351.817 300.824 352.66 301.25L373.96 313.55C374.888 314.129 375.9 314.561 376.96 314.83C377.751 315.004 378.569 315.004 379.36 314.83C380.079 314.671 380.77 314.405 381.41 314.04V314.02Z" fill="#00B59B"/>
<path d="M397.26 308.01L361.8 287.54L372.4 281.42C374.216 280.333 376.284 279.737 378.4 279.69C380.513 279.682 382.588 280.253 384.4 281.34L390.04 284.6C392 285.727 393.12 286.913 393.4 288.16C393.69 289.4 392.97 290.59 391.26 291.72C392.449 291.131 393.78 290.891 395.1 291.03C396.775 291.279 398.42 291.698 400.01 292.28L415.22 297.63L409.71 300.81L395.45 295.4C394.308 295.008 393.146 294.674 391.97 294.4C391.095 294.129 390.148 294.208 389.33 294.62L386.78 296.09L402.38 305.09L397.26 308.01ZM382.78 293.71L386.11 291.8C387.32 291.09 387.82 290.39 387.6 289.69C387.38 288.99 386.53 288.2 385.05 287.35L380.55 284.75C379.465 284.07 378.242 283.639 376.97 283.49C375.899 283.413 374.831 283.668 373.91 284.22L370.12 286.41L382.78 293.71Z" fill="#00B59B"/>
<path d="M418.92 295.5L383.47 275.03L388.4 272.18L423.86 292.65L418.92 295.5ZM430.98 288.5L405.91 281.71L395.37 268.12L400.72 265.03L410.79 278.89L436.44 285.35L430.98 288.5Z" fill="#00B59B"/>
<path d="M439.5 283.62L404.04 263.15L408.93 260.33L440.43 278.52L448.07 274.11L452.07 276.39L439.5 283.62Z" fill="#00B59B"/>
<path d="M463.5 270.6C461.932 271.513 460.251 272.216 458.5 272.69C456.662 273.154 454.742 273.185 452.89 272.78C450.325 272.183 447.876 271.17 445.64 269.78L426.5 258.73C424.34 257.483 423.037 256.33 422.59 255.27C422.367 254.765 422.3 254.206 422.396 253.663C422.492 253.12 422.748 252.617 423.13 252.22C424.172 251.06 425.407 250.089 426.78 249.35C428.348 248.439 430.029 247.739 431.78 247.27C433.521 246.829 435.33 246.723 437.11 246.96C439.236 247.287 441.276 248.035 443.11 249.16L462.19 260.16C465.03 261.8 466.76 263.23 467.39 264.43C467.708 264.929 467.855 265.518 467.808 266.109C467.762 266.699 467.523 267.257 467.13 267.7C466.099 268.871 464.87 269.853 463.5 270.6ZM460.08 268.6C460.644 268.309 461.136 267.896 461.52 267.39C461.671 267.188 461.753 266.942 461.753 266.69C461.753 266.438 461.671 266.192 461.52 265.99C460.914 265.251 460.157 264.651 459.3 264.23L438 251.93C437.069 251.361 436.058 250.937 435 250.67C434.194 250.481 433.356 250.481 432.55 250.67C431.813 250.841 431.105 251.12 430.45 251.5C429.898 251.788 429.417 252.194 429.04 252.69C428.904 252.904 428.839 253.156 428.856 253.41C428.872 253.663 428.968 253.905 429.13 254.1C429.728 254.829 430.475 255.422 431.32 255.84L452.62 268.14C453.567 268.724 454.599 269.156 455.68 269.42C456.471 269.594 457.29 269.594 458.08 269.42C458.783 269.253 459.457 268.984 460.08 268.62V268.6Z" fill="#00B59B"/>
<path d="M473.9 263.76L444.42 239.84L451.42 235.84L492.75 252.92L487.24 256.1L478.79 252.67L473.18 255.91L479.24 260.72L473.9 263.76ZM470.31 254.13L475.76 250.98L453.32 241.14L470.31 254.13Z" fill="#00B59B"/>
<path d="M495.88 251.07L460.42 230.6L470.6 224.72C471.899 223.954 473.32 223.416 474.8 223.13C476.247 222.855 477.733 222.855 479.18 223.13C480.82 223.474 482.392 224.089 483.83 224.95L504.83 237.07C506.326 237.796 507.613 238.89 508.57 240.25C508.833 240.672 508.961 241.164 508.938 241.66C508.915 242.157 508.741 242.635 508.44 243.03C507.626 244.069 506.604 244.927 505.44 245.55L495.88 251.07ZM497.96 246.34L501.55 244.27C502.41 243.77 502.82 243.2 502.76 242.56C502.7 241.92 501.87 241.15 500.27 240.23L479.51 228.23C478.283 227.433 476.885 226.936 475.43 226.78C474.385 226.708 473.342 226.945 472.43 227.46L468.84 229.53L497.96 246.34Z" fill="#00B59B"/>
<path d="M524.83 234.85C523.176 235.799 521.379 236.474 519.51 236.85C517.519 237.213 515.473 237.144 513.51 236.65C510.91 235.959 508.424 234.894 506.13 233.49L504.08 232.32L506.63 230.85L509.18 229.38L511.7 230.83C513.061 231.649 514.506 232.319 516.01 232.83C516.971 233.174 517.991 233.32 519.01 233.26C519.772 233.199 520.513 232.974 521.18 232.6C522.18 232.02 522.6 231.33 522.43 230.53C522.26 229.73 521.08 228.7 518.92 227.46C517.622 226.649 516.195 226.067 514.7 225.74C513.409 225.52 512.091 225.52 510.8 225.74C509.42 225.96 507.71 226.29 505.69 226.74C504.02 227.046 502.327 227.21 500.63 227.23C498.962 227.244 497.302 227.015 495.7 226.55C493.864 225.993 492.101 225.218 490.45 224.24C488.679 223.315 487.079 222.094 485.72 220.63C485.291 220.213 485.007 219.67 484.908 219.08C484.809 218.49 484.9 217.884 485.17 217.35C486.137 215.89 487.481 214.718 489.06 213.96C491.51 212.494 494.305 211.703 497.16 211.67C500.018 211.695 502.818 212.482 505.27 213.95L509.41 216.34L506.99 217.74L504.52 219.16L502.06 217.74C500.609 216.829 499.002 216.195 497.32 215.87C496.06 215.678 494.773 215.921 493.67 216.56C492.53 217.227 492.1 217.927 492.38 218.66C492.65 219.4 493.63 220.26 495.31 221.23C496.554 221.988 497.932 222.497 499.37 222.73C500.606 222.915 501.863 222.915 503.1 222.73C504.32 222.53 505.52 222.3 506.71 222.03C508.651 221.561 510.622 221.227 512.61 221.03C514.289 220.889 515.98 221.034 517.61 221.46C519.635 222.062 521.574 222.923 523.38 224.02C525.9 225.47 527.54 226.83 528.29 228.08C528.653 228.597 528.859 229.209 528.882 229.841C528.905 230.473 528.745 231.098 528.42 231.64C527.51 232.993 526.276 234.097 524.83 234.85Z" fill="#00B59B"/>
<line x1="876.601" y1="602.387" x2="748.601" y2="532.387" stroke="white" stroke-width="10"/>
<line x1="981.601" y1="535.387" x2="853.601" y2="465.387" stroke="white" stroke-width="10"/>
<line x1="1218.6" y1="686.387" x2="1090.6" y2="616.387" stroke="white" stroke-width="10"/>
<line x1="1129.6" y1="777.387" x2="1001.6" y2="707.387" stroke="white" stroke-width="10"/>
<line x1="1129.21" y1="712.15" x2="1065.21" y2="669.15" stroke="white" stroke-width="10"/>
<line x1="620.601" y1="529.387" x2="492.601" y2="459.387" stroke="white" stroke-width="10"/>
<line x1="593.354" y1="522.242" x2="492.354" y2="459.242" stroke="white" stroke-width="10"/>
<line x1="864.601" y1="400.387" x2="736.601" y2="330.387" stroke="white" stroke-width="10"/>
<line x1="398.601" y1="481.387" x2="270.601" y2="411.387" stroke="white" stroke-width="10"/>
<line x1="537.601" y1="397.387" x2="409.601" y2="327.387" stroke="white" stroke-width="10"/>
<line x1="395.601" y1="259.387" x2="267.601" y2="189.387" stroke="white" stroke-width="10"/>
<line x1="641.601" y1="317.387" x2="513.601" y2="247.387" stroke="white" stroke-width="10"/>
<line x1="817.601" y1="210.387" x2="689.601" y2="140.387" stroke="white" stroke-width="10"/>
<ellipse cx="1126.5" cy="712.5" rx="18.5" ry="14.5" fill="white"/>
<ellipse cx="1211.5" cy="686.5" rx="18.5" ry="14.5" fill="white"/>
<ellipse cx="1241.5" cy="350.5" rx="18.5" ry="14.5" fill="white"/>
<ellipse cx="1259.5" cy="432.5" rx="18.5" ry="14.5" fill="white"/>
<path d="M1073.5 490.5L1167.5 434.5V390L1244 350M1124.5 527.5L1179.5 498L1192 469.5L1261 434.5" stroke="white" stroke-width="10"/>
<path d="M657 756.5L751 700.5V656L827.5 616M708 793.5L763 764L775.5 735.5L844.5 700.5" stroke="white" stroke-width="10"/>
<path d="M309 739.5L403 683.5V639L479.5 599M360 776.5L415 747L427.5 718.5L569 639" stroke="white" stroke-width="10"/>
<path d="M1197.5 567L1159.5 547L1245 503.5L1311.5 532" stroke="white" stroke-width="10"/>
</g>
<defs>
<clipPath id="clip0_25_44">
<rect width="1367" height="773" fill="white"/>
</clipPath>
</defs>
</svg>
